<svg id="visual" viewBox="0 0 900 600" width="900" height="600" xmlns="http://www.w3.org/2000/svg" xmlns:xlink="http://www.w3.org/1999/xlink" version="1.1"><rect x="0" y="0" width="900" height="600" fill="#001220"></rect><path d="M0 430L21.5 423.8C43 417.7 86 405.3 128.8 408.2C171.7 411 214.3 429 257.2 425.3C300 421.7 343 396.3 385.8 390.2C428.7 384 471.3 397 514.2 395C557 393 600 376 642.8 378C685.7 380 728.3 401 771.2 405.7C814 410.3 857 398.7 878.5 392.8L900 387L900 601L878.5 601C857 601 814 601 771.2 601C728.3 601 685.7 601 642.8 601C600 601 557 601 514.2 601C471.3 601 428.7 601 385.8 601C343 601 300 601 257.2 601C214.3 601 171.7 601 128.8 601C86 601 43 601 21.5 601L0 601Z" fill="#715df2"></path><path d="M0 478L21.5 477.2C43 476.3 86 474.7 128.8 471.5C171.7 468.3 214.3 463.7 257.2 463.8C300 464 343 469 385.8 466.2C428.7 463.3 471.3 452.7 514.2 440C557 427.3 600 412.7 642.8 412.2C685.7 411.7 728.3 425.3 771.2 426C814 426.7 857 414.3 878.5 408.2L900 402L900 601L878.5 601C857 601 814 601 771.2 601C728.3 601 685.7 601 642.8 601C600 601 557 601 514.2 601C471.3 601 428.7 601 385.8 601C343 601 300 601 257.2 601C214.3 601 171.7 601 128.8 601C86 601 43 601 21.5 601L0 601Z" fill="#9078e9"></path><path d="M0 457L21.5 461.7C43 466.3 86 475.7 128.8 483.3C171.7 491 214.3 497 257.2 489.2C300 481.3 343 459.7 385.8 454C428.7 448.3 471.3 458.7 514.2 467.3C557 476 600 483 642.8 488.7C685.7 494.3 728.3 498.7 771.2 490.7C814 482.7 857 462.3 878.5 452.2L900 442L900 601L878.5 601C857 601 814 601 771.2 601C728.3 601 685.7 601 642.8 601C600 601 557 601 514.2 601C471.3 601 428.7 601 385.8 601C343 601 300 601 257.2 601C214.3 601 171.7 601 128.8 601C86 601 43 601 21.5 601L0 601Z" fill="#a894e0"></path><path d="M0 508L21.5 503.8C43 499.7 86 491.3 128.8 488.5C171.7 485.7 214.3 488.3 257.2 495.2C300 502 343 513 385.8 511.2C428.7 509.3 471.3 494.7 514.2 494.3C557 494 600 508 642.8 513C685.7 518 728.3 514 771.2 508.8C814 503.7 857 497.3 878.5 494.2L900 491L900 601L878.5 601C857 601 814 601 771.2 601C728.3 601 685.7 601 642.8 601C600 601 557 601 514.2 601C471.3 601 428.7 601 385.8 601C343 601 300 601 257.2 601C214.3 601 171.7 601 128.8 601C86 601 43 601 21.5 601L0 601Z" fill="#bbb0d6"></path><path d="M0 529L21.5 536.3C43 543.7 86 558.3 128.8 562.5C171.7 566.7 214.3 560.3 257.2 557.3C300 554.3 343 554.7 385.8 555.8C428.7 557 471.3 559 514.2 554.7C557 550.3 600 539.7 642.8 539.2C685.7 538.7 728.3 548.3 771.2 555.5C814 562.7 857 567.3 878.5 569.7L900 572L900 601L878.5 601C857 601 814 601 771.2 601C728.3 601 685.7 601 642.8 601C600 601 557 601 514.2 601C471.3 601 428.7 601 385.8 601C343 601 300 601 257.2 601C214.3 601 171.7 601 128.8 601C86 601 43 601 21.5 601L0 601Z" fill="#cccccc"></path></svg>