<svg id="visual" viewBox="0 0 900 250" width="900" height="250" xmlns="http://www.w3.org/2000/svg" xmlns:xlink="http://www.w3.org/1999/xlink" version="1.1"><rect x="0" y="0" width="900" height="250" fill="#001220"></rect><path d="M0 96L30 97C60 98 120 100 180 101.3C240 102.7 300 103.3 360 111.8C420 120.3 480 136.7 540 146C600 155.3 660 157.7 720 148.5C780 139.3 840 118.7 870 108.3L900 98L900 251L870 251C840 251 780 251 720 251C660 251 600 251 540 251C480 251 420 251 360 251C300 251 240 251 180 251C120 251 60 251 30 251L0 251Z" fill="#fa7268"></path><path d="M0 167L30 172.8C60 178.7 120 190.3 180 193.2C240 196 300 190 360 190.5C420 191 480 198 540 195C600 192 660 179 720 179.2C780 179.3 840 192.7 870 199.3L900 206L900 251L870 251C840 251 780 251 720 251C660 251 600 251 540 251C480 251 420 251 360 251C300 251 240 251 180 251C120 251 60 251 30 251L0 251Z" fill="#c62368"></path></svg>